# xmcd
#
# Track frame offsets:
#	150
#	9948
#	21277
#	37685
#	51533
#	66870
#	77279
#	91172
#	101522
#	120260
#	129652
#	142330
#	154677
#	168266
#
# Disc length: 2369 seconds
# Revision: 0
# Processed by: cddbd v1.5.2PL0 Copyright (c) Steve Scherf et al.
# Submitted via: dBpowerAMP V12.0
#
DISCID=a6093f0e
DTITLE=The Foghorn Trio - Sud de La Louisiane
DYEAR=2011
DGENRE=Country
TTITLE0=I Want to Be Loved (But Only By You)
TTITLE1=Gentleman From Virginia
TTITLE2=Hello Central
TTITLE3=Liza Jane
TTITLE4=Just a Little
TTITLE5=Le Sud De La Louisiane
TTITLE6=Go Home
TTITLE7=None of Your Business
TTITLE8=I Don't Claim to Be An Angel
TTITLE9=Puttin' Up the Wood
TTITLE10=I'm Troubled
TTITLE11=Nuts and Bolts
TTITLE12=Let's Be Lovers Again
TTITLE13=A Bottle of Wine and Gingercake
EXTD=
EXTT0=
EXTT1=
EXTT2=
EXTT3=
EXTT4=
EXTT5=
EXTT6=
EXTT7=
EXTT8=
EXTT9=
EXTT10=
EXTT11=
EXTT12=
EXTT13=
PLAYORDER=
